# xmcd
#
# Track frame offsets:
#	150
#	11284
#	26492
#	38025
#	54875
#	69112
#	80337
#	99740
#	112077
#	126630
#	138035
#	154309
#	173195
#	182827
#	194637
#	205100
#
# Disc length: 2933
#
# Revision: 2
# Processed by: cddbd v1.5.1PL0 Copyright (c) Steve Scherf et al.
# Submitted via: audiograbber 1.80
# Normalized: r1:DSETVAR1,TDELIM( - )
#
DISCID=d50b7310
DTITLE=Various Artist - 60´s super oldie party CD2
DYEAR=1900
DGENRE=
TTITLE0=Troy shondell - Mony Mony
TTITLE1=Del Shannon - Runaway
TTITLE2=Bryan Hyland - Sealed with a kiss
TTITLE3=The Shirelles - Will you love me tomorrow
TTITLE4=Spencer Davis - Keep on runnin´
TTITLE5=Roger McGuinn - Mr. Tambouriune man
TTITLE6=Coasters - Little egypt
TTITLE7=Ray Peterson - Tell Laura I love her
TTITLE8=Bobby Lewis - Toussin´and turnin´
TTITLE9=The Platters - Smoke gets in your eyes
TTITLE10=Freddie Cannon - Tellehassee Lassie
TTITLE11=Martha Reeves - No where to run
TTITLE12=Joey Dee - Shout
TTITLE13=Sam Moore - Soul man
TTITLE14=Tommy Roe - Dizzy
TTITLE15=The Platters - The great pretender
EXTD=
EXTT0=
EXTT1=
EXTT2=
EXTT3=
EXTT4=
EXTT5=
EXTT6=
EXTT7=
EXTT8=
EXTT9=
EXTT10=
EXTT11=
EXTT12=
EXTT13=
EXTT14=
EXTT15=
PLAYORDER=
